<svg width="778" height="299" viewBox="0 0 778 299" fill="none" xmlns="http://www.w3.org/2000/svg">
<path d="M0 194V0.479989H29.52V194H0ZM39.36 194V0.479989H68.88V194H39.36ZM78.72 194V0.479989H88.56V194H78.72ZM98.4 194V0.479989H108.24V194H98.4ZM137.76 194V0.479989H147.6V194H137.76ZM53.136 222.536H60.024L78.72 259.928L97.744 222.536H104.304V298.632H96.104V241.232L79.704 272.064H76.424L61.008 241.56V298.632H53.136V222.536Z" fill="#EEEEEE"/>
<path d="M157.594 194V0.479989H187.114V194H157.594ZM196.954 194V0.479989H206.794V194H196.954ZM216.634 194V0.479989H226.474V194H216.634ZM255.994 194V0.479989H265.834V194H255.994ZM275.674 194V0.479989H305.194V194H275.674ZM248.45 276.328H223.85L216.306 298.632H207.778L235.658 221.224H236.642L264.85 298.632H255.994L248.45 276.328ZM246.154 269.768L236.314 240.904L226.146 269.768H246.154Z" fill="#B4B6BD"/>
<path d="M315.188 194V0.479989H344.708V194H315.188ZM354.548 194V0.479989H364.388V194H354.548ZM374.228 194V0.479989H384.068V194H374.228ZM393.908 194V0.479989H403.748V194H393.908ZM433.268 194V0.479989H462.788V194H433.268ZM383.74 260.584L377.508 267.144V298.632H368.652V222.536H378.82V223.52C378.382 223.957 378.054 224.504 377.836 225.16C377.617 225.597 377.508 226.581 377.508 228.112V257.632L409.324 222.208C411.292 222.427 413.369 222.536 415.556 222.536H418.836L389.972 255.336L420.804 298.632L409.98 298.96L383.74 260.584Z" fill="#C9904F"/>
<path d="M472.781 194V0.479989H502.301V194H472.781ZM512.141 194V0.479989H521.981V194H512.141ZM531.821 194V0.479989H541.661V194H531.821ZM551.501 194V0.479989H561.341V194H551.501ZM590.861 194V0.479989H620.381V194H590.861ZM541.333 260.584L535.101 267.144V298.632H526.245V222.536H536.413V223.52C535.976 223.957 535.648 224.504 535.429 225.16C535.211 225.597 535.101 226.581 535.101 228.112V257.632L566.917 222.208C568.885 222.427 570.963 222.536 573.149 222.536H576.429L547.565 255.336L578.397 298.632L567.573 298.96L541.333 260.584Z" fill="#5F5E5E"/>
<path d="M630.375 194V0.479989H659.895V194H630.375ZM669.735 194V0.479989H679.575V194H669.735ZM689.415 194V0.479989H718.935V194H689.415ZM748.455 194V0.479989H758.295V194H748.455ZM768.135 194V0.479989H777.975V194H768.135ZM685.807 222.536H732.383V230.08H693.679V255.008H725.823V262.88H693.679V291.088H732.055V298.632H685.807V222.536Z" fill="#8D875D"/>
</svg>
