<svg width="96" height="96" viewBox="0 0 96 96" fill="none" xmlns="http://www.w3.org/2000/svg">
<path d="M72.0287 0C75.3166 0 78.4134 0.630824 81.319 1.89247C84.2246 3.15412 86.767 4.87455 88.9462 7.05376C91.1254 9.23297 92.8459 11.7754 94.1075 14.681C95.3692 17.5866 96 20.6834 96 23.9713V71.914C96 75.2019 95.3692 78.3178 94.1075 81.2616C92.8459 84.2055 91.1254 86.767 88.9462 88.9462C86.767 91.1254 84.2246 92.8459 81.319 94.1075C78.4134 95.3692 75.3166 96 72.0287 96H23.9713C20.6834 96 17.5866 95.3692 14.681 94.1075C11.7754 92.8459 9.23297 91.1254 7.05376 88.9462C4.87455 86.767 3.15412 84.2055 1.89247 81.2616C0.630824 78.3178 0 75.2019 0 71.914V23.9713C0 20.6834 0.630824 17.5866 1.89247 14.681C3.15412 11.7754 4.87455 9.23297 7.05376 7.05376C9.23297 4.87455 11.7754 3.15412 14.681 1.89247C17.5866 0.630824 20.6834 0 23.9713 0H72.0287ZM33.0323 36.0143H20.9892V75.0108H33.0323V36.0143ZM27.0681 32.9176C28.6738 32.9176 30.0693 32.3441 31.2545 31.1971C32.4397 30.0502 33.0323 28.6356 33.0323 26.9534C33.0323 25.2712 32.4397 23.8566 31.2545 22.7097C30.0693 21.5627 28.6738 20.9892 27.0681 20.9892C25.3859 20.9892 23.9522 21.5627 22.767 22.7097C21.5818 23.8566 20.9892 25.2712 20.9892 26.9534C20.9892 28.6356 21.5818 30.0502 22.767 31.1971C23.9522 32.3441 25.3859 32.9176 27.0681 32.9176ZM75.0108 52.4158C75.0108 49.6631 74.2461 46.9677 72.7168 44.3297C71.1876 41.6918 69.1995 39.6846 66.7527 38.3082C64.5352 37.0848 61.9546 36.4349 59.0108 36.3584C56.0669 36.282 53.4098 36.779 51.0394 37.8495V36.0143H38.9964V75.0108H51.0394V51.1541L55.9713 48.7455C56.583 48.4397 57.4241 48.2867 58.4946 48.2867C59.5651 48.2867 60.368 48.4779 60.9032 48.8602C61.362 49.0896 61.8208 49.5866 62.2796 50.3513C62.7384 51.1159 62.9677 51.8041 62.9677 52.4158V75.0108H75.0108V52.4158Z" fill="#8D875D"/>
</svg>
