<svg width="96" height="96" viewBox="0 0 96 96" fill="none" xmlns="http://www.w3.org/2000/svg">
<path fill-rule="evenodd" clip-rule="evenodd" d="M8 24C8 17.3726 13.3726 12 20 12H76C82.6276 12 88 17.3726 88 24V64C88 70.6276 82.6276 76 76 76H29.3333L16 86C12.7038 88.472 8 86.1204 8 82V24ZM28 36C28 33.7909 29.7909 32 32 32H64C66.2092 32 68 33.7909 68 36C68 38.2091 66.2092 40 64 40H32C29.7909 40 28 38.2091 28 36ZM32 48C29.7909 48 28 49.7908 28 52C28 54.2092 29.7909 56 32 56H44C46.2092 56 48 54.2092 48 52C48 49.7908 46.2092 48 44 48H32Z" fill="#8D875D"/>
</svg>
